<?xml version="1.0" encoding="utf-8"?>
<!-- Generator: Adobe Illustrator 28.3.0, SVG Export Plug-In . SVG Version: 6.00 Build 0)  -->
<svg version="1.1" xmlns="http://www.w3.org/2000/svg" xmlns:xlink="http://www.w3.org/1999/xlink" x="0px" y="0px"
	 viewBox="0 0 402.1 402.1" style="enable-background:new 0 0 402.1 402.1;" xml:space="preserve">
<style type="text/css">
	.st0{display:none;}
	.st1{display:inline;}
</style>
<g id="star">
	<path d="M201.6,117.1l28,55l60,9l-43,42l10,62l-55-30l-54,29l10-60l-45-43l62-9L201.6,117.1L201.6,117.1z"/>
	<path d="M57.2,61.5l8.7-8.3l48.9,51.4l-8.7,8.3C106.1,112.9,57.2,61.5,57.2,61.5z M131.9,42.8l16,41.4l10.7-3.3l-16-41.4
		C142.5,39.5,131.9,42.8,131.9,42.8z M348.2,337.5l-8.5,8.5l-50.1-50.2l8.5-8.5L348.2,337.5L348.2,337.5z M274,358l-17-41l-10.6,3.5
		l17,41L274,358z M62.8,346.3l-8.3-8.7l51.4-49l8.3,8.7C114.2,297.4,62.8,346.3,62.8,346.3z M44.1,271.6l41.4-16L82.2,245l-41.4,16
		L44.1,271.6z M338.8,55l8.5,8.5L297,113.7l-8.5-8.5L338.8,55L338.8,55z M359.3,129.3l-41,17l3.5,10.6l41-17L359.3,129.3z
		 M0.5,205.4l0.3-12l71,1.7l-0.3,12C71.5,207.1,0.5,205.4,0.5,205.4z M40.1,139.3l40.6,18l5.2-9.9l-40.6-18
		C45.4,129.4,40.1,139.3,40.1,139.3z M401.6,194.6v12h-71v-12H401.6z M363.6,261.5l-41-17l-5,10l41,17L363.6,261.5z M206.1,401.6
		l-12-0.3l1.7-71l12,0.3L206.1,401.6z M140,362l18-40.6l-9.9-5.2l-18,40.6L140,362L140,362z M195.2,0.5h12v71h-12V0.5z M262.2,38.5
		l-17,41l10,5l17-41L262.2,38.5z"/>
</g>
<g id="Layer_1" class="st0">
	<path class="st1" d="M201.6,117.1l28,55l60,9l-43,42l10,62l-55-30l-54,29l10-60l-45-43l62-9L201.6,117.1L201.6,117.1z"/>
	<path class="st1" d="M57.2,61.5l8.7-8.3l48.9,51.4l-8.7,8.3C106.1,112.9,57.2,61.5,57.2,61.5z M131.9,42.8l16,41.4l10.7-3.3
		l-16-41.4C142.5,39.5,131.9,42.8,131.9,42.8z M348.2,337.5l-8.5,8.5l-50.1-50.2l8.5-8.5L348.2,337.5L348.2,337.5z M274,358l-17-41
		l-10.6,3.5l17,41L274,358z M62.8,346.3l-8.3-8.7l51.4-49l8.3,8.7C114.2,297.4,62.8,346.3,62.8,346.3z M44.1,271.6l41.4-16L82.2,245
		l-41.4,16L44.1,271.6z M338.8,55l8.5,8.5L297,113.7l-8.5-8.5L338.8,55L338.8,55z M359.3,129.3l-41,17l3.5,10.6l41-17L359.3,129.3z
		 M0.5,205.4l0.3-12l71,1.7l-0.3,12C71.5,207.1,0.5,205.4,0.5,205.4z M40.1,139.3l40.6,18l5.2-9.9l-40.6-18
		C45.4,129.4,40.1,139.3,40.1,139.3z M401.6,194.6v12h-71v-12H401.6z M363.6,261.5l-41-17l-5,10l41,17L363.6,261.5z M206.1,401.6
		l-12-0.3l1.7-71l12,0.3L206.1,401.6z M140,362l18-40.6l-9.9-5.2l-18,40.6L140,362L140,362z M195.2,0.5h12v71h-12V0.5z M262.2,38.5
		l-17,41l10,5l17-41L262.2,38.5z"/>
</g>
</svg>
