<svg xmlns="http://www.w3.org/2000/svg" width="1000" height="1080" viewBox="0 0 1000 1080">
  <defs>
    <style>
      .cls-1 {
        stroke: #000;
        stroke-width: 1px;
        fill-rule: evenodd;
      }
    </style>
  </defs>
  <path class="cls-1" d="M500,456l28,55,60,9-43,42,10,62-55-30-54,29,10-60-45-43,62-9Z"/>
  <path class="cls-1" d="M356,399.985l8.679-8.277,48.921,51.4-8.679,8.278Zm74.641-18.7L446.6,422.694l10.678-3.278-15.956-41.411ZM647,675.969l-8.476,8.485-50.151-50.2,8.477-8.486Zm-74.166,20.506-16.953-41.012L545.283,659l16.953,41.013ZM361.579,684.844l-8.278-8.688,51.406-48.974,8.277,8.688Zm-18.7-74.721,41.411-15.973-3.278-10.689L339.6,599.434ZM637.563,393.534l8.485,8.485-50.205,50.2-8.485-8.486Zm20.506,74.246-41.012,16.971,3.535,10.606,41.012-16.97ZM299.3,543.884l0.29-12,70.979,1.72-0.29,12Zm39.611-66.06,40.576,17.987,5.241-9.876-40.576-17.987Zm361.526,55.223v12h-71v-12h71Zm-38,67-41-17-5,10,41,17Zm-157.6,140.09-12-.29,1.719-70.979,12,0.29Zm-66.06-39.611,17.988-40.576-9.876-5.241L428.9,695.286ZM494,339h12v71H494V339Zm67,38-17,41,10,5,17-41Z"/>
</svg>
